<svg width="32" height="32" viewBox="0 0 32 32" fill="none" xmlns="http://www.w3.org/2000/svg">
<rect width="32" height="32" rx="4" fill="white"/>
<g clip-path="url(#clip0_633_687)">
<path d="M13.1703 6.99255C13.1703 6.44438 12.7019 6 12.1242 6C11.5465 6 11.0781 6.44438 11.0781 6.99255V8.78981C11.0781 9.33798 11.5465 9.78236 12.1242 9.78236C12.7019 9.78236 13.1703 9.33798 13.1703 8.78981V6.99255Z" fill="#EE7807"/>
<path d="M20.8203 6.99255C20.8203 6.44438 20.3519 6 19.7742 6C19.1964 6 18.7281 6.44438 18.7281 6.99255V8.78981C18.7281 9.33798 19.1964 9.78236 19.7742 9.78236C20.3519 9.78236 20.8203 9.33798 20.8203 8.78981V6.99255Z" fill="#EE7807"/>
<path d="M18.6112 14.285H7.24912V9.95322C7.24912 9.77995 7.3435 9.69331 7.5564 9.69331H9.66042C9.71802 9.70162 9.77687 9.69702 9.83226 9.67987C9.88765 9.66271 9.93803 9.63349 9.97938 9.59454C10.0207 9.5556 10.0519 9.508 10.0704 9.45557C10.0888 9.40315 10.0941 9.34734 10.0858 9.29263V8.2855C10.0941 8.23078 10.0888 8.17498 10.0704 8.12255C10.0519 8.07012 10.0207 8.02253 9.97938 7.98358C9.93803 7.94463 9.88765 7.91541 9.83226 7.89826C9.77687 7.88111 9.71802 7.8765 9.66042 7.88481H5.42823C5.37158 7.87617 5.31358 7.88018 5.25883 7.8965C5.20409 7.91282 5.1541 7.941 5.11283 7.97883C5.07155 8.01666 5.04012 8.06308 5.02104 8.11443C5.00195 8.16578 4.99573 8.22064 5.00287 8.27467V25.5925C5.00481 25.6987 5.05034 25.7999 5.12978 25.8748C5.20922 25.9496 5.3163 25.9921 5.42823 25.9931H11.1736C11.2651 25.9919 11.3527 25.9576 11.4186 25.8973C11.4845 25.8369 11.5237 25.755 11.5283 25.6683V24.5095C11.5237 24.4228 11.4845 24.3409 11.4186 24.2805C11.3527 24.2202 11.2651 24.1859 11.1736 24.1846H7.5564C7.3435 24.1846 7.24912 24.1088 7.24912 23.9347V16.1155H18.6112C18.6569 16.1163 18.7024 16.1085 18.745 16.0926C18.7876 16.0767 18.8265 16.053 18.8594 16.0228C18.8924 15.9926 18.9187 15.9566 18.937 15.9168C18.9552 15.8769 18.9651 15.8341 18.9659 15.7907V14.6103C18.9651 14.5668 18.9554 14.5239 18.9371 14.484C18.9189 14.4441 18.8925 14.408 18.8596 14.3778C18.8266 14.3476 18.7878 14.3239 18.7451 14.3079C18.7025 14.292 18.657 14.2842 18.6112 14.285Z" fill="#292929"/>
<path d="M26.4668 7.89562H22.2228C22.1652 7.88731 22.1063 7.89192 22.0509 7.90907C21.9956 7.92622 21.9452 7.95544 21.9038 7.99439C21.8625 8.03334 21.8313 8.08093 21.8128 8.13336C21.7944 8.18579 21.7891 8.24159 21.7974 8.29631V9.31427C21.7903 9.36829 21.7965 9.42315 21.8156 9.4745C21.8347 9.52585 21.8661 9.57227 21.9074 9.6101C21.9486 9.64793 21.9986 9.67612 22.0534 9.69244C22.1081 9.70876 22.1661 9.71276 22.2228 9.70413H24.3387C24.5516 9.70413 24.6459 9.79076 24.6459 9.96403V14.2958H20.9814C20.9356 14.295 20.8901 14.3028 20.8475 14.3187C20.8049 14.3346 20.766 14.3583 20.7331 14.3885C20.7001 14.4187 20.6738 14.4547 20.6555 14.4945C20.6373 14.5344 20.6275 14.5772 20.6267 14.6207V15.801C20.6275 15.8445 20.6373 15.8873 20.6555 15.9272C20.6738 15.967 20.7001 16.003 20.7331 16.0332C20.766 16.0634 20.8049 16.0871 20.8475 16.103C20.8901 16.1189 20.9356 16.1267 20.9814 16.1259H24.6459V23.9343C24.6459 24.1076 24.5516 24.1842 24.3387 24.1842H13.5582C13.5125 24.1834 13.467 24.1912 13.4244 24.2071C13.3818 24.223 13.3429 24.2468 13.31 24.2769C13.277 24.3071 13.2507 24.3431 13.2324 24.383C13.2142 24.4228 13.2044 24.4657 13.2036 24.5091V25.6678C13.2044 25.7113 13.2142 25.7541 13.2324 25.794C13.2507 25.8338 13.277 25.8698 13.31 25.9C13.3429 25.9302 13.3818 25.9539 13.4244 25.9698C13.467 25.9857 13.5125 25.9935 13.5582 25.9927H26.4673C26.5792 25.9916 26.6863 25.9492 26.7657 25.8744C26.8451 25.7995 26.8907 25.6982 26.8926 25.592V8.28548C26.8998 8.23141 26.8935 8.17651 26.8744 8.12512C26.8553 8.07374 26.8239 8.02729 26.7825 7.98945C26.7412 7.95161 26.6912 7.92343 26.6364 7.90715C26.5815 7.89086 26.5235 7.88691 26.4668 7.89562Z" fill="#292929"/>
<path d="M16.8418 9.79118C17.3936 9.79118 17.8409 9.36685 17.8409 8.84341C17.8409 8.31996 17.3936 7.89563 16.8418 7.89563H15.0618C14.51 7.89563 14.0627 8.31996 14.0627 8.84341C14.0627 9.36685 14.51 9.79118 15.0618 9.79118H16.8418Z" fill="#292929"/>
</g>
<defs>
<clipPath id="clip0_633_687">
<rect width="22" height="20" fill="white" transform="translate(5 6)"/>
</clipPath>
</defs>
</svg>
